<svg width="844" height="598" viewBox="0 0 844 598" fill="none" xmlns="http://www.w3.org/2000/svg">
<path d="M237.14 0H360.19L421.72 316V597.34L237.14 0Z" fill="white"/>
<path d="M606.28 0H483.23L421.7 315.5L372.5 370.5L421.7 597.34L606.28 0Z" fill="white"/>
<path d="M843.406 521.28V0.000244141H767.356L761.44 521.28H843.406Z" fill="white"/>
<path fill-rule="evenodd" clip-rule="evenodd" d="M581.517 440.876C577.405 467.556 573.657 494.355 570.28 521.271H843.44V437.771L581.517 440.876Z" fill="white"/>
<path fill-rule="evenodd" clip-rule="evenodd" d="M623.916 222.041C617.822 248.031 612.078 274.156 606.69 300.411L843.44 302.218V221L623.916 222.041Z" fill="white"/>
<path fill-rule="evenodd" clip-rule="evenodd" d="M685.489 0C677.282 25.5598 669.422 51.2747 661.912 77.1391L843.44 78V0L685.489 0Z" fill="white"/>
<path d="M0 521L0 0H77.3357L81 521H0Z" fill="white"/>
<path fill-rule="evenodd" clip-rule="evenodd" d="M252.484 439.548C255.454 466.59 258.069 493.743 260.324 521H0V437L252.484 439.548Z" fill="white"/>
<path fill-rule="evenodd" clip-rule="evenodd" d="M219.507 222.76C224.416 248.501 228.984 274.363 233.206 300.341L0 302V222.5L219.507 222.76Z" fill="white"/>
<path fill-rule="evenodd" clip-rule="evenodd" d="M167.756 0C174.779 25.5632 181.459 51.2681 187.793 77.1094L0 78V0L167.756 0Z" fill="white"/>
</svg>
