<svg width="534" height="534" viewBox="0 0 534 534" fill="none" xmlns="http://www.w3.org/2000/svg">
<path d="M266.667 0C194.245 0 185.163 0.30724 156.72 1.60447C128.337 2.89933 108.952 7.40789 91.9893 13.9989C74.4537 20.8137 59.5823 29.9325 44.7578 44.757C29.9325 59.5815 20.8137 74.4544 13.9997 91.9901C7.4071 108.952 2.90012 128.337 1.60368 156.72C0.306446 185.163 0 194.245 0 266.667C0 339.089 0.306446 348.17 1.60368 376.613C2.90012 404.997 7.4071 424.382 13.9997 441.343C20.8145 458.879 29.9333 473.75 44.7578 488.576C59.5831 503.401 74.4537 512.52 91.9893 519.335C108.952 525.925 128.337 530.433 156.72 531.729C185.163 533.026 194.245 533.333 266.667 533.333C339.089 533.333 348.17 533.026 376.613 531.729C404.997 530.434 424.382 525.925 441.343 519.335C458.879 512.52 473.75 503.401 488.576 488.576C503.401 473.75 512.52 458.879 519.335 441.343C525.925 424.382 530.434 404.997 531.729 376.613C533.026 348.17 533.333 339.089 533.333 266.667C533.333 194.245 533.026 185.163 531.729 156.72C530.434 128.337 525.925 108.952 519.335 91.9901C512.52 74.4544 503.401 59.5815 488.576 44.757C473.75 29.9325 458.879 20.8137 441.343 13.9989C424.382 7.40789 404.997 2.89933 376.613 1.60447C348.17 0.30724 339.089 0 266.667 0ZM266.667 48.0477C337.869 48.0477 346.304 48.32 374.423 49.603C400.423 50.7882 414.543 55.1325 423.939 58.7844C436.387 63.6225 445.27 69.4005 454.601 78.732C463.933 88.0635 469.711 96.9473 474.549 109.394C478.201 118.791 482.545 132.911 483.73 158.91C485.013 187.03 485.286 195.464 485.286 266.667C485.286 337.869 485.013 346.304 483.73 374.423C482.545 400.423 478.201 414.543 474.549 423.939C469.711 436.387 463.933 445.27 454.601 454.601C445.27 463.933 436.386 469.711 423.939 474.549C414.543 478.201 400.422 482.545 374.423 483.73C346.308 485.013 337.875 485.286 266.667 485.286C195.459 485.286 187.026 485.013 158.91 483.73C132.91 482.545 118.791 478.201 109.395 474.549C96.9465 469.711 88.0635 463.933 78.7328 454.601C69.4013 445.27 63.6225 436.386 58.7844 423.939C55.1325 414.543 50.789 400.422 49.603 374.423C48.32 346.304 48.0477 337.869 48.0477 266.667C48.0477 195.464 48.32 187.03 49.603 158.91C50.789 132.91 55.1325 118.791 58.7844 109.395C63.6225 96.9465 69.4013 88.0635 78.732 78.7328C88.0635 69.4005 96.9473 63.6225 109.394 58.7844C118.791 55.1325 132.911 50.7882 158.91 49.603C187.03 48.32 195.465 48.0477 266.667 48.0477Z" fill="white"/>
<path d="M266.667 355.557C217.574 355.557 177.777 315.761 177.777 266.669C177.777 217.576 217.574 177.779 266.667 177.779C315.759 177.779 355.555 217.576 355.555 266.669C355.555 315.761 315.759 355.557 266.667 355.557ZM266.667 129.731C191.038 129.731 129.729 191.04 129.729 266.669C129.729 342.297 191.038 403.605 266.667 403.605C342.295 403.605 403.603 342.297 403.603 266.669C403.603 191.04 342.295 129.731 266.667 129.731ZM441.014 124.321C441.014 141.995 426.687 156.321 409.014 156.321C391.341 156.321 377.014 141.995 377.014 124.321C377.014 106.648 391.341 92.3203 409.014 92.3203C426.687 92.3203 441.014 106.648 441.014 124.321Z" fill="white"/>
</svg>
