<svg width="469" height="534" viewBox="0 0 469 534" fill="none" xmlns="http://www.w3.org/2000/svg">
<path d="M182.456 210.524V189.471C175.438 187.717 168.42 187.719 161.403 187.719C71.9296 187.719 0 259.647 0 349.12C0 403.506 28.0701 452.628 68.4208 480.699L66.6664 478.944C40.3507 450.874 26.3157 412.279 26.3157 371.929C26.3157 282.455 96.4909 212.278 182.456 210.524Z" fill="#25F4EE"/>
<path d="M185.967 445.613C226.318 445.613 257.897 414.034 259.651 373.683V22.8069H322.809C321.055 15.7894 321.055 8.7719 321.055 0H233.336V350.876C231.581 389.472 200.002 421.051 159.652 421.051C147.371 421.051 135.09 417.542 126.318 412.279C140.353 431.578 161.406 445.613 185.967 445.613ZM443.858 142.105V121.052C419.296 121.052 396.489 114.035 377.191 101.754C394.735 121.052 417.542 136.842 443.858 142.105Z" fill="#25F4EE"/>
<path d="M377.19 101.748C357.892 80.6958 347.365 52.6257 347.365 21.0469H322.804C329.821 56.1345 350.874 84.2046 377.19 101.748ZM161.403 273.676C121.052 273.676 87.7188 307.009 87.7188 347.36C87.7188 375.43 105.263 399.991 128.069 412.272C119.298 399.991 114.034 385.956 114.034 370.167C114.034 329.816 147.368 296.483 187.718 296.483C194.736 296.483 201.753 298.237 208.771 299.992V210.518C201.753 208.764 194.736 208.764 187.718 208.764H184.21V275.43C175.438 275.43 168.42 273.676 161.403 273.676Z" fill="#FE2C55"/>
<path d="M443.857 142.102V208.768C398.243 208.768 356.138 194.733 322.805 170.172V349.118C322.805 438.592 250.875 510.521 161.402 510.521C126.314 510.521 94.7356 499.995 68.4199 482.451C98.2444 514.03 140.35 533.328 185.963 533.328C275.437 533.328 347.366 461.399 347.366 371.925V192.979C382.454 217.54 424.559 231.575 468.419 231.575V143.856C461.401 143.856 452.629 143.856 443.857 142.102Z" fill="#FE2C55"/>
<path d="M322.805 349.116V170.169C357.893 194.732 399.998 208.766 443.857 208.766V140.345C417.542 135.082 394.735 121.047 377.191 101.748C349.121 84.2046 329.823 54.3801 324.56 21.0469H259.647V371.925C257.893 410.521 226.314 442.1 185.964 442.1C161.402 442.1 140.35 429.817 126.315 412.274C103.508 401.747 87.7182 377.186 87.7182 349.116C87.7182 308.765 121.051 275.434 161.402 275.434C168.42 275.434 175.437 277.186 182.455 278.941V210.52C94.7358 212.274 24.5605 284.206 24.5605 371.925C24.5605 414.03 40.35 452.624 68.4201 482.449C94.7358 499.993 126.315 512.275 161.402 512.275C250.876 510.521 322.805 436.835 322.805 349.116Z" fill="white"/>
<path d="M322.805 349.116V170.169C357.893 194.732 399.998 208.766 443.857 208.766V140.345C417.542 135.082 394.735 121.047 377.191 101.748C349.121 84.2046 329.823 54.3801 324.56 21.0469H259.647V371.925C257.893 410.521 226.314 442.1 185.964 442.1C161.402 442.1 140.35 429.817 126.315 412.274C103.508 401.747 87.7182 377.186 87.7182 349.116C87.7182 308.765 121.051 275.434 161.402 275.434C168.42 275.434 175.437 277.186 182.455 278.941V210.52C94.7358 212.274 24.5605 284.206 24.5605 371.925C24.5605 414.03 40.35 452.624 68.4201 482.449C94.7358 499.993 126.315 512.275 161.402 512.275C250.876 510.521 322.805 436.835 322.805 349.116Z" fill="white"/>
</svg>
